PathFileType	4	(X/Y/Z)	C:/Users/opensim2020/Desktop/walking_exp_matlab/subject01_walking06_straight_04.trc	
DataRate	CameraRate	NumFrames	NumMarkers	Units	OrigDataRate	OrigDataStartFrame	OrigNumFrames	
100.00	100.00	4	43	mm	100.00	2869	212	
Frame#	Time	LFHD			RFHD			LBHD			RBHD			C7			T10			CLAV			STRN			RBAK			LSHO			LUPA			LELB			LFRM			LWRA			LWRB			LFIN			RSHO			RUPA			RELB			RFRM			RWRA			RWRB			RFIN			LASI			RASI			LPSI			RPSI			LTHI			LKNE			LTIB			LANK			LHEE			LTOE			RTHI			RKNE			RTIB			RANK			RHEE			RTOE			*39			*40			*41			*42			
		X1	Y1	Z1	X2	Y2	Z2	X3	Y3	Z3	X4	Y4	Z4	X5	Y5	Z5	X6	Y6	Z6	X7	Y7	Z7	X8	Y8	Z8	X9	Y9	Z9	X10	Y10	Z10	X11	Y11	Z11	X12	Y12	Z12	X13	Y13	Z13	X14	Y14	Z14	X15	Y15	Z15	X16	Y16	Z16	X17	Y17	Z17	X18	Y18	Z18	X19	Y19	Z19	X20	Y20	Z20	X21	Y21	Z21	X22	Y22	Z22	X23	Y23	Z23	X24	Y24	Z24	X25	Y25	Z25	X26	Y26	Z26	X27	Y27	Z27	X28	Y28	Z28	X29	Y29	Z29	X30	Y30	Z30	X31	Y31	Z31	X32	Y32	Z32	X33	Y33	Z33	X34	Y34	Z34	X35	Y35	Z35	X36	Y36	Z36	X37	Y37	Z37	X38	Y38	Z38	X39	Y39	Z39	X40	Y40	Z40	X41	Y41	Z41	X42	Y42	Z42	X43	Y43	Z43	

80	0.790	-1073.29846	420.60080	1662.89563	-1184.93481	391.30634	1661.03308	-1096.07422	536.84216	1622.87646	-1214.67456	509.84024	1621.14636	-1117.63330	579.18811	1424.90051	-1104.57886	608.50800	1129.50281	-1114.73425	436.12732	1355.39246	-1097.55029	391.61731	1203.44312	-1175.54871	632.90125	1223.28418	-954.96271	495.10495	1398.69885	-856.22906	508.60233	1219.46875	-841.77289	494.60522	1065.96033	-821.73029	401.51797	994.07886	-848.27936	273.15762	946.78424	-820.10687	312.27301	910.92755	-814.03247	231.82713	886.16907	-1267.92285	501.33420	1370.29688	-1343.14099	587.91650	1169.47461	-1332.64246	605.57458	1048.26733	-1359.45520	610.89709	928.48993	-1350.85059	556.10797	796.73773	-1378.31763	606.64752	806.84924	-1379.09558	587.42719	722.90466	-986.73016	437.00186	923.44763	-1203.71204	421.73074	932.21075	-1052.79382	618.54279	938.09241	-1198.49817	608.75842	940.52637	-939.08704	535.01392	596.97833	-950.60925	581.86896	467.25745	-941.32648	712.94897	327.78522	-989.18329	843.75500	148.55289	-1040.70483	894.45032	151.03577	-997.10333	744.08502	38.29711	-1269.56152	412.00311	607.40143	-1242.87659	360.76178	459.40457	-1258.20605	378.92581	284.04544	-1217.78418	370.22742	76.88636	-1169.41418	417.27228	37.13185	-1215.87329	228.50829	40.81729	-1166.07141	404.22961	1696.64539	-3101.74341	1973.16846	1023.37506	-3140.66064	2012.48999	1022.01001			 
81	0.800	-1076.51074	411.06592	1664.14978	-1188.01782	381.45016	1662.08142	-1099.56201	527.17328	1623.82373	-1217.99451	499.78882	1621.81909	-1120.27197	569.12262	1425.43311	-1106.20081	596.95453	1130.07825	-1117.22107	425.64764	1356.63489	-1099.62744	380.48627	1204.97949	-1177.60864	621.84589	1223.64429	-957.61407	484.81409	1399.97656	-858.79309	499.68011	1221.02295	-844.21686	486.99731	1067.22180	-823.87292	395.10361	994.17847	-850.05811	267.44287	944.84143	-821.89148	307.14066	909.62573	-815.75726	227.03912	883.57184	-1270.37659	490.95520	1371.05481	-1345.75244	575.79199	1169.43884	-1335.22034	592.64722	1048.22498	-1361.94385	597.16058	928.45959	-1352.87866	541.81995	796.86493	-1380.86609	592.10425	806.86353	-1381.41223	572.65363	722.99445	-988.82251	425.20145	924.35315	-1205.32178	410.18753	933.64520	-1053.76660	606.66168	939.26001	-1199.67200	597.09027	942.49512	-940.22815	519.01373	596.77313	-950.63507	563.60864	466.73764	-940.94281	699.48303	331.31226	-988.23895	834.63928	155.34821	-1040.56543	883.67230	160.62657	-996.85388	743.17914	38.36499	-1270.02197	400.94110	608.06696	-1243.50757	352.75351	458.77463	-1259.08789	373.72321	283.21829	-1217.43115	368.93677	76.76469	-1169.59241	416.99115	37.33471	-1214.90601	227.50266	39.88771	-1169.23999	394.74054	1697.60852	-3101.89355	1973.18030	1023.49207	-3140.61865	2012.59644	1022.04413			 
82	0.810	-1079.63525	401.46851	1665.45569	-1191.03015	371.55768	1663.09595	-1102.85413	517.41223	1624.82983	-1221.17676	489.72128	1622.49780	-1122.87195	558.89716	1426.08594	-1107.99072	586.46472	1131.10925	-1119.60046	415.20822	1357.96741	-1101.64111	369.47079	1206.51099	-1179.63525	610.72345	1224.06091	-960.12561	474.65488	1401.33594	-861.04419	490.39276	1222.63696	-846.20697	479.75897	1068.84668	-826.05896	388.83655	994.21277	-851.85437	261.97629	942.62933	-823.78223	302.41766	908.10260	-817.55884	222.82596	880.41693	-1272.78149	480.51126	1371.89966	-1348.46118	563.60840	1169.65283	-1337.80408	579.61566	1048.35010	-1364.48059	583.07538	928.69067	-1355.48621	526.74084	797.54022	-1383.39124	577.13922	807.14886	-1383.70544	557.35022	723.23462	-990.97864	413.61279	925.54602	-1206.78650	399.17276	934.84607	-1055.03650	595.03851	940.66675	-1201.09680	585.54968	944.28326	-941.15381	502.23541	596.41901	-950.16876	544.42377	466.19897	-940.83752	684.64307	334.99728	-987.34222	824.31531	162.56050	-1040.89844	870.98608	170.41281	-997.03320	741.71094	38.48818	-1270.97449	390.35614	608.42798	-1244.24390	345.20874	457.87296	-1260.03870	369.37537	282.77640	-1217.29993	368.36035	76.68061	-1169.58496	416.78848	37.32715	-1214.30164	226.72272	39.18578	-1172.42175	385.08322	1698.57178	-3101.85156	1973.08887	1023.42914	-3140.53540	2012.56897	1022.08771			 
83	0.820	-1082.51050	391.87445	1666.68896	-1193.87927	361.64252	1664.03638	-1105.77307	507.62650	1625.68616	-1224.18787	479.62851	1623.08936	-1125.36475	548.46698	1426.82861	-1109.79724	575.64063	1131.94299	-1121.92114	404.68005	1359.25061	-1103.50842	358.57309	1207.89697	-1181.77747	599.71021	1224.56787	-962.48175	464.60446	1402.64441	-863.08850	480.74335	1224.24548	-848.98175	472.24872	1070.34082	-828.23285	382.77042	994.15228	-853.64539	256.87079	940.10223	-825.45795	298.27713	906.27893	-819.29584	219.07970	877.03876	-1275.14063	469.92944	1372.84229	-1350.86243	551.52747	1170.05750	-1340.57178	566.60168	1048.76343	-1367.04419	568.84155	929.00537	-1357.94739	511.41904	798.26709	-1386.03955	561.89514	807.56818	-1386.21460	541.59698	723.64722	-993.29938	402.34183	926.94775	-1208.52917	388.09619	935.83582	-1056.67505	583.68762	942.17615	-1202.78259	574.12909	945.96985	-941.70557	484.84088	595.91913	-949.35858	524.50128	465.59445	-940.27454	668.83246	339.07507	-986.59985	812.11365	169.35666	-1041.38940	856.55804	179.96669	-997.62463	740.60754	38.39329	-1272.41711	380.75287	608.66992	-1245.26050	338.37869	457.29135	-1260.41968	365.45593	282.52704	-1217.08972	367.87930	76.65032	-1169.60925	416.79276	37.50158	-1214.00415	226.32083	38.64857	-1175.42432	375.34253	1699.60840	-3101.84595	1973.10071	1023.30347	-3140.68921	2012.58716	1022.03992			 
